<?xml version="1.0" encoding="UTF-8"?>
<svg width="512px" height="512px" viewBox="0 0 512 512" version="1.1" xmlns="http://www.w3.org/2000/svg" xmlns:xlink="http://www.w3.org/1999/xlink">
    <title>logo-transparent-svg</title>
    <g id="Page-1" stroke="none" stroke-width="1" fill="none" fill-rule="evenodd">
        <g id="logo-transparent-svg" transform="translate(0.000000, -0.000000)" fill="#C74348">
            <g id="Group" transform="translate(-0.000000, 0.000000)">
                <path d="M1.5463963,324.207889 C8.02219641,348.248708 32.7427752,362.503764 56.792763,356.065559 C80.8356074,349.587399 95.1116277,324.884045 88.7208581,300.816897 C82.245058,276.776079 57.5244792,262.521023 33.4744914,268.959228 C21.9053688,272.037033 12.0366074,279.592486 6.04641532,289.957968 C0.0562232448,300.32345 -1.5629065,312.646746 1.5463963,324.207889 Z" id="Path"></path>
                <path d="M166.998502,279.865457 C170.196947,290.796721 181.541748,297.170469 192.540978,294.215759 C203.471788,291.017181 209.845272,279.671909 206.890684,268.672222 C203.72437,257.750797 192.401195,251.371278 181.419957,254.32192 C170.460217,257.489634 164.049484,268.844439 166.998502,279.865457 Z" id="Path"></path>
                <path d="M91.2319783,255.972205 C91.2130005,264.719255 94.6742582,273.114577 100.852381,279.306416 C107.030503,285.498256 115.417924,288.977899 124.164631,288.977899 C132.911338,288.977899 141.298759,285.498256 147.476881,279.306416 C153.655004,273.114577 157.116261,264.719255 157.097284,255.972205 C157.097284,247.237581 153.627534,238.860704 147.451478,232.684391 C141.275422,226.508079 132.898893,223.038263 124.164631,223.038263 C115.430369,223.038263 107.05384,226.508079 100.877784,232.684391 C94.7017285,238.860703 91.2319783,247.23758 91.2319783,255.972205 Z" id="Path"></path>
                <path d="M324.199528,510.474804 C348.239348,503.998735 362.493812,479.27713 356.055874,455.226143 C352.978197,443.65654 345.423057,433.787369 335.058006,427.796928 C324.692955,421.806487 312.37017,420.18729 300.809507,423.296722 C276.769687,429.772791 262.515223,454.494396 268.953161,478.545383 C275.431052,502.589226 300.133379,516.865839 324.199528,510.474804 L324.199528,510.474804 Z" id="Path"></path>
                <path d="M279.858937,345.087578 C290.805738,341.953795 297.20048,330.602656 294.208643,319.615793 C291.232324,308.523533 279.832364,301.940184 268.737915,304.906733 C257.64303,307.885244 251.038398,319.267484 253.957719,330.378519 C255.380897,335.802435 258.932905,340.422325 263.808872,343.191341 C268.684839,345.960357 274.471974,346.644079 279.858937,345.087578 L279.858937,345.087578 Z" id="Path"></path>
                <path d="M256.038426,420.785419 C274.210214,420.745956 288.931539,406.02402 288.971,387.851477 C288.971,369.650919 274.238184,354.88535 256.038426,354.845783 C237.810642,354.845783 223.034103,369.622936 223.034103,387.851477 C223.073668,406.051991 237.838624,420.785419 256.038426,420.785419 L256.038426,420.785419 Z" id="Path"></path>
                <path d="M124.308128,484.142001 C145.869373,496.54754 173.402953,489.166437 185.868365,467.639154 C191.868517,457.281082 193.500695,444.961106 190.404727,433.39786 C187.30876,421.834614 179.739125,411.978555 169.366204,406.004608 C159.015012,400.027002 146.712917,398.407514 135.167469,401.502576 C123.622021,404.597638 113.77944,412.153591 107.805967,422.507455 C101.805815,432.865527 100.173637,445.185503 103.269604,456.748749 C106.365572,468.311995 113.935207,478.168054 124.308128,484.142001 L124.308128,484.142001 Z" id="Path"></path>
                <path d="M209.975871,335.759882 C214.77809,338.608504 220.523648,339.407469 225.920837,337.977154 C231.318026,336.54684 235.913922,333.007276 238.675282,328.154222 C241.523786,323.351804 242.322717,317.606007 240.892462,312.208593 C239.462207,306.81118 235.92279,302.215093 231.069938,299.453619 C226.277459,296.5646 220.518228,295.742893 215.10908,297.176376 C209.699932,298.60986 205.103421,302.175954 202.370527,307.059279 C199.501943,311.856878 198.691717,317.609462 200.123543,323.012806 C201.55537,328.416149 205.10796,333.012539 209.975871,335.759882 Z" id="Path"></path>
                <path d="M139.518816,372.496654 C145.685141,378.687875 154.063274,382.168146 162.801213,382.168146 C171.539153,382.168146 179.917286,378.687875 186.083611,372.496654 C198.93865,359.636168 198.93865,338.790411 186.083611,325.929925 C179.917286,319.738704 171.539153,316.258434 162.801213,316.258434 C154.063274,316.258434 145.685141,319.738704 139.518816,325.929925 C133.327852,332.096506 129.847726,340.474987 129.847726,349.21329 C129.847726,357.951592 133.327852,366.330073 139.518816,372.496654 Z" id="Path"></path>
                <path d="M484.126997,387.707974 C496.538435,366.124253 489.1603,338.56738 467.624835,326.073428 C446.042011,313.661475 418.486282,321.039916 405.99285,342.576275 C393.581412,364.159996 400.959547,391.716869 422.495011,404.210821 C432.852653,410.211222 445.172117,411.843467 456.734883,408.747371 C468.297649,405.651275 478.153298,398.081325 484.126997,387.707974 L484.126997,387.707974 Z" id="Path"></path>
                <path d="M335.894538,302.036673 C338.743041,297.234255 339.541973,291.488458 338.111718,286.091044 C336.681463,280.693631 333.142046,276.097544 328.289194,273.33607 C323.486975,270.487448 317.741416,269.688483 312.344227,271.118798 C306.947038,272.549112 302.351142,276.088676 299.589782,280.94173 C296.76113,285.748867 295.973343,291.487975 297.402052,296.879554 C298.830761,302.271133 302.357184,306.866928 307.195126,309.642333 C312.002064,312.471103 317.740934,313.258923 323.132289,311.830155 C328.523644,310.401386 333.119248,306.874816 335.894538,302.036673 Z" id="Path"></path>
                <path d="M372.558036,372.496654 C385.413075,359.636168 385.413075,338.790411 372.558036,325.929925 C366.379443,319.734366 357.989437,316.252328 349.239764,316.252328 C340.490091,316.252328 332.100085,319.734366 325.921492,325.929925 C319.730528,332.096506 316.250402,340.474987 316.250402,349.21329 C316.250402,357.951592 319.730528,366.330073 325.921492,372.496654 C332.100085,378.692214 340.490091,382.174251 349.239764,382.174251 C357.989437,382.174251 366.379443,378.692214 372.558036,372.496654 Z" id="Path"></path>
                <path d="M387.696975,27.8741607 C366.119711,15.4198505 338.532441,22.806737 326.064989,44.3770075 C313.623221,65.9739546 321.043478,93.5681766 342.638899,106.011553 C352.998792,111.983209 365.307434,113.591777 376.853917,110.482979 C388.4004,107.374182 398.237674,99.803004 404.199137,89.4369546 C410.195955,79.0898202 411.826235,66.7806665 408.729784,55.2290779 C405.633333,43.6774893 398.065015,33.8342627 387.696975,27.8741607 L387.696975,27.8741607 Z" id="Path"></path>
                <path d="M302.029232,176.184528 C297.21355,173.361659 291.468079,172.584755 286.075677,174.027283 C280.683274,175.46981 276.093016,179.011637 273.329821,183.861939 C270.481318,188.664358 269.682386,194.410155 271.112641,199.807568 C272.542896,205.204981 276.082313,209.801068 280.935165,212.562543 C285.742102,215.391312 291.480972,216.179133 296.872327,214.750364 C302.263683,213.321596 306.859287,209.795026 309.634576,204.956883 C312.48628,200.143473 313.287023,194.386914 311.857268,188.9779 C310.427513,183.568885 306.886883,178.959969 302.029232,176.184528 Z" id="Path"></path>
                <path d="M372.558036,139.519507 C366.379443,133.323948 357.989437,129.84191 349.239764,129.84191 C340.490091,129.84191 332.100085,133.323948 325.921492,139.519507 C319.730528,145.686088 316.250402,154.064569 316.250402,162.802872 C316.250402,171.541174 319.730528,179.919655 325.921492,186.086236 C338.822315,198.910666 359.657213,198.910666 372.558036,186.086236 C385.413075,173.22575 385.413075,152.379993 372.558036,139.519507 Z" id="Path"></path>
                <path d="M510.458707,187.808272 C503.982907,163.767453 479.262328,149.512398 455.21234,155.950603 C443.648634,159.012297 433.780433,166.553649 427.789096,176.907648 C421.797759,187.261646 420.176697,199.575598 423.284245,211.127512 C429.728236,235.197373 454.458846,249.490332 478.530612,243.056933 C502.599473,236.612675 516.891838,211.881038 510.458707,187.808272 L510.458707,187.808272 Z" id="Path"></path>
                <path d="M344.934852,232.150704 C341.834311,221.177354 330.455693,214.766599 319.464125,217.800403 C308.517324,220.934186 302.122582,232.285325 305.114419,243.272188 C308.214961,254.245538 319.593579,260.656293 330.585147,257.62249 C341.558041,254.521819 347.96853,243.142729 344.934852,232.150704 L344.934852,232.150704 Z" id="Path"></path>
                <path d="M420.773047,255.972205 C420.733585,237.799662 406.01226,223.077725 387.840472,223.038263 C369.640671,223.038263 354.875714,237.771691 354.836149,255.972205 C354.836149,274.200747 369.612688,288.977899 387.840473,288.977899 C406.040231,288.938332 420.773047,274.172762 420.773047,255.972205 Z" id="Path"></path>
                <path d="M155.949229,56.7900184 C159.042416,68.3463744 166.603988,78.1982895 176.967246,84.1742346 C187.330504,90.1501798 199.644707,91.759577 211.195596,88.647688 C222.746056,85.5704566 232.596988,78.0226621 238.573823,67.6704621 C244.550658,57.3182622 246.161925,45.0129084 243.051942,33.4707783 C236.607951,9.40091766 211.877341,-4.89204134 187.805576,1.54135718 C163.765755,8.01742624 149.511291,32.7390317 155.949229,56.7900184 Z" id="Path"></path>
                <path d="M232.146166,167.000335 C221.215356,170.198913 214.841872,181.544185 217.79646,192.543872 C220.962774,203.465297 232.285949,209.844815 243.267188,206.894173 C254.362074,203.915663 260.966705,192.533423 258.047385,181.422388 C256.52785,176.073249 252.944227,171.547636 248.085959,168.842505 C243.227691,166.137373 237.493351,165.474653 232.146166,167.000335 L232.146166,167.000335 Z" id="Path"></path>
                <path d="M256.038426,91.230664 C247.291739,91.2116855 238.896766,94.673087 232.705184,100.851466 C226.513601,107.029845 223.034103,115.417614 223.034103,124.164685 C223.034103,132.911755 226.513601,141.299524 232.705184,147.477903 C238.896766,153.656282 247.291739,157.117684 256.038426,157.098705 C264.772688,157.098705 273.149217,153.628811 279.325273,147.452498 C285.501328,141.276186 288.971,132.899309 288.971,124.164685 C288.971,115.43006 285.501329,107.053183 279.325273,100.876871 C273.149217,94.7005587 264.772688,91.230664 256.038426,91.230664 L256.038426,91.230664 Z" id="Path"></path>
                <path d="M27.8781062,124.308188 C21.8812881,134.655322 20.2510075,146.964476 23.3474586,158.516064 C26.4439096,170.067653 34.0122274,179.910879 44.3802676,185.870982 C54.7379093,191.871383 67.0573736,193.503628 78.6201393,190.407532 C90.182905,187.311436 100.038554,179.741486 106.012253,169.368135 C118.417277,147.805994 111.036481,120.27127 89.5100919,107.805341 C79.1524502,101.804939 66.832986,100.172694 55.2702203,103.26879 C43.7074546,106.364886 33.8518051,113.934836 27.8781062,124.308188 Z" id="Path"></path>
                <path d="M176.254062,209.907737 C173.42541,214.714874 172.637623,220.453982 174.066332,225.845561 C175.495041,231.23714 179.021464,235.832935 183.859406,238.60834 C188.661625,241.456962 194.407184,242.255927 199.804373,240.825612 C205.201562,239.395298 209.797458,235.855734 212.558818,231.00268 C215.38747,226.195543 216.175258,220.456435 214.746549,215.064856 C213.317839,209.673277 209.791416,205.077482 204.953474,202.302077 C200.151255,199.453455 194.405696,198.65449 189.008507,200.084805 C183.611318,201.515119 179.015422,205.054683 176.254062,209.907737 Z" id="Path"></path>
                <path d="M139.518816,139.519507 C133.327852,145.686088 129.847726,154.064569 129.847726,162.802872 C129.847726,171.541174 133.327852,179.919655 139.518816,186.086236 C152.378768,198.941809 173.223659,198.941809 186.083611,186.086236 C198.93865,173.22575 198.93865,152.379993 186.083611,139.519507 C179.917286,133.328286 171.539153,129.848016 162.801213,129.848016 C154.063274,129.848016 145.685141,133.328286 139.518816,139.519507 Z" id="Path"></path>
            </g>
        </g>
    </g>
</svg>